<svg width="16" height="10" viewBox="0 0 16 10" fill="none" xmlns="http://www.w3.org/2000/svg">
<path d="M15.7467 4.67089C15.6059 4.48848 12.2571 0.199951 8 0.199951C3.74293 0.199951 0.3936 4.48848 0.253333 4.67089L0 4.99995L0.253333 5.32902C0.3936 5.51142 3.74293 9.79995 8 9.79995C12.2571 9.79995 15.6059 5.51142 15.7467 5.32902L16 4.99995L15.7467 4.67089ZM8 7.66662C6.52747 7.66662 5.33333 6.47248 5.33333 4.99995C5.33333 3.52742 6.52747 2.33328 8 2.33328C9.47253 2.33328 10.6667 3.52742 10.6667 4.99995C10.6667 6.47248 9.47253 7.66662 8 7.66662Z" fill="#999999"/>
</svg>
